<svg version="1.1" viewBox="0.0 0.0 912.0 1056.0" fill="none" stroke="none" stroke-linecap="square" stroke-miterlimit="10" xmlns:xlink="http://www.w3.org/1999/xlink" xmlns="http://www.w3.org/2000/svg"><clipPath id="p.0"><path d="m0 0l912.0 0l0 1056.0l-912.0 0l0 -1056.0z" clip-rule="nonzero"/></clipPath><g clip-path="url(#p.0)"><path fill="#000000" fill-opacity="0.0" d="m0 0l912.0 0l0 1056.0l-912.0 0z" fill-rule="evenodd"/><path fill="#efefef" d="m76.97836 937.6294l18.42849 -18.015747l56.27688 0l18.428497 18.015747z" fill-rule="evenodd"/><path stroke="#000000" stroke-width="1.0" stroke-linejoin="round" stroke-linecap="butt" d="m76.97836 937.6294l18.42849 -18.015747l56.27688 0l18.428497 18.015747z" fill-rule="evenodd"/><path fill="#666666" d="m16.694225 930.90594l18.42849 -18.015747l56.276882 0l18.42849 18.015747z" fill-rule="evenodd"/><path stroke="#000000" stroke-width="1.0" stroke-linejoin="round" stroke-linecap="butt" d="m16.694225 930.90594l18.42849 -18.015747l56.276882 0l18.42849 18.015747z" fill-rule="evenodd"/><path fill="#666666" d="m16.694225 923.8842l18.42849 -18.015747l56.276882 0l18.42849 18.015747z" fill-rule="evenodd"/><path stroke="#000000" stroke-width="1.0" stroke-linejoin="round" stroke-linecap="butt" d="m16.694225 923.8842l18.42849 -18.015747l56.276882 0l18.42849 18.015747z" fill-rule="evenodd"/><path fill="#666666" d="m16.694225 917.81995l18.42849 -18.015747l56.276882 0l18.42849 18.015747z" fill-rule="evenodd"/><path stroke="#000000" stroke-width="1.0" stroke-linejoin="round" stroke-linecap="butt" d="m16.694225 917.81995l18.42849 -18.015747l56.276882 0l18.42849 18.015747z" fill-rule="evenodd"/><path fill="#666666" d="m16.694225 910.88934l18.42849 -18.015747l56.276882 0l18.42849 18.015747z" fill-rule="evenodd"/><path stroke="#000000" stroke-width="1.0" stroke-linejoin="round" stroke-linecap="butt" d="m16.694225 910.88934l18.42849 -18.015747l56.276882 0l18.42849 18.015747z" fill-rule="evenodd"/><path fill="#666666" d="m16.694225 904.198l18.42849 -18.015747l56.276882 0l18.42849 18.015747z" fill-rule="evenodd"/><path stroke="#000000" stroke-width="1.0" stroke-linejoin="round" stroke-linecap="butt" d="m16.694225 904.198l18.42849 -18.015747l56.276882 0l18.42849 18.015747z" fill-rule="evenodd"/><path fill="#666666" d="m16.694225 897.0472l18.42849 -18.015747l56.276882 0l18.42849 18.015747z" fill-rule="evenodd"/><path stroke="#000000" stroke-width="1.0" stroke-linejoin="round" stroke-linecap="butt" d="m16.694225 897.0472l18.42849 -18.015747l56.276882 0l18.42849 18.015747z" fill-rule="evenodd"/><path fill="#efefef" d="m137.24724 930.90594l18.428482 -18.015747l56.276886 0l18.428497 18.015747z" fill-rule="evenodd"/><path stroke="#000000" stroke-width="1.0" stroke-linejoin="round" stroke-linecap="butt" d="m137.24724 930.90594l18.428482 -18.015747l56.276886 0l18.428497 18.015747z" fill-rule="evenodd"/><path fill="#efefef" d="m137.24724 923.8842l18.428482 -18.015747l56.276886 0l18.428497 18.015747z" fill-rule="evenodd"/><path stroke="#000000" stroke-width="1.0" stroke-linejoin="round" stroke-linecap="butt" d="m137.24724 923.8842l18.428482 -18.015747l56.276886 0l18.428497 18.015747z" fill-rule="evenodd"/><path fill="#efefef" d="m137.24724 917.81995l18.428482 -18.015747l56.276886 0l18.428497 18.015747z" fill-rule="evenodd"/><path stroke="#000000" stroke-width="1.0" stroke-linejoin="round" stroke-linecap="butt" d="m137.24724 917.81995l18.428482 -18.015747l56.276886 0l18.428497 18.015747z" fill-rule="evenodd"/><path fill="#efefef" d="m137.24724 910.88934l18.428482 -18.015747l56.276886 0l18.428497 18.015747z" fill-rule="evenodd"/><path stroke="#000000" stroke-width="1.0" stroke-linejoin="round" stroke-linecap="butt" d="m137.24724 910.88934l18.428482 -18.015747l56.276886 0l18.428497 18.015747z" fill-rule="evenodd"/><path fill="#efefef" d="m137.24724 904.198l18.428482 -18.015747l56.276886 0l18.428497 18.015747z" fill-rule="evenodd"/><path stroke="#000000" stroke-width="1.0" stroke-linejoin="round" stroke-linecap="butt" d="m137.24724 904.198l18.428482 -18.015747l56.276886 0l18.428497 18.015747z" fill-rule="evenodd"/><path fill="#efefef" d="m137.24724 897.0472l18.428482 -18.015747l56.276886 0l18.428497 18.015747z" fill-rule="evenodd"/><path stroke="#000000" stroke-width="1.0" stroke-linejoin="round" stroke-linecap="butt" d="m137.24724 897.0472l18.428482 -18.015747l56.276886 0l18.428497 18.015747z" fill-rule="evenodd"/><path fill="#000000" d="m112.000374 897.66864l20.787407 0l0 -2.1732178l4.346451 4.3464966l-4.346451 4.3464355l0 -2.1732178l-20.787407 0z" fill-rule="evenodd"/><path stroke="#000000" stroke-width="1.0" stroke-linejoin="round" stroke-linecap="butt" d="m112.000374 897.66864l20.787407 0l0 -2.1732178l4.346451 4.3464966l-4.346451 4.3464355l0 -2.1732178l-20.787407 0z" fill-rule="evenodd"/><path fill="#efefef" d="m298.62497 938.11176l18.428467 -18.015747l56.276886 0l18.428497 18.015747z" fill-rule="evenodd"/><path stroke="#000000" stroke-width="1.0" stroke-linejoin="round" stroke-linecap="butt" d="m298.62497 938.11176l18.428467 -18.015747l56.276886 0l18.428497 18.015747z" fill-rule="evenodd"/><path fill="#efefef" d="m238.34082 931.3883l18.428497 -18.015747l56.276886 0l18.428467 18.015747z" fill-rule="evenodd"/><path stroke="#000000" stroke-width="1.0" stroke-linejoin="round" stroke-linecap="butt" d="m238.34082 931.3883l18.428497 -18.015747l56.276886 0l18.428467 18.015747z" fill-rule="evenodd"/><path fill="#efefef" d="m238.34082 924.3666l18.428497 -18.015747l56.276886 0l18.428467 18.015747z" fill-rule="evenodd"/><path stroke="#000000" stroke-width="1.0" stroke-linejoin="round" stroke-linecap="butt" d="m238.34082 924.3666l18.428497 -18.015747l56.276886 0l18.428467 18.015747z" fill-rule="evenodd"/><path fill="#efefef" d="m238.34082 918.3023l18.428497 -18.015747l56.276886 0l18.428467 18.015747z" fill-rule="evenodd"/><path stroke="#000000" stroke-width="1.0" stroke-linejoin="round" stroke-linecap="butt" d="m238.34082 918.3023l18.428497 -18.015747l56.276886 0l18.428467 18.015747z" fill-rule="evenodd"/><path fill="#efefef" d="m238.34082 911.37177l18.428497 -18.015747l56.276886 0l18.428467 18.015747z" fill-rule="evenodd"/><path stroke="#000000" stroke-width="1.0" stroke-linejoin="round" stroke-linecap="butt" d="m238.34082 911.37177l18.428497 -18.015747l56.276886 0l18.428467 18.015747z" fill-rule="evenodd"/><path fill="#efefef" d="m238.34082 904.68036l18.428497 -18.015747l56.276886 0l18.428467 18.015747z" fill-rule="evenodd"/><path stroke="#000000" stroke-width="1.0" stroke-linejoin="round" stroke-linecap="butt" d="m238.34082 904.68036l18.428497 -18.015747l56.276886 0l18.428467 18.015747z" fill-rule="evenodd"/><path fill="#efefef" d="m238.34082 897.52954l18.428497 -18.015747l56.276886 0l18.428467 18.015747z" fill-rule="evenodd"/><path stroke="#000000" stroke-width="1.0" stroke-linejoin="round" stroke-linecap="butt" d="m238.34082 897.52954l18.428497 -18.015747l56.276886 0l18.428467 18.015747z" fill-rule="evenodd"/><path fill="#666666" d="m358.89383 931.3883l18.428497 -18.015747l56.276886 0l18.428467 18.015747z" fill-rule="evenodd"/><path stroke="#000000" stroke-width="1.0" stroke-linejoin="round" stroke-linecap="butt" d="m358.89383 931.3883l18.428497 -18.015747l56.276886 0l18.428467 18.015747z" fill-rule="evenodd"/><path fill="#666666" d="m358.89383 924.3666l18.428497 -18.015747l56.276886 0l18.428467 18.015747z" fill-rule="evenodd"/><path stroke="#000000" stroke-width="1.0" stroke-linejoin="round" stroke-linecap="butt" d="m358.89383 924.3666l18.428497 -18.015747l56.276886 0l18.428467 18.015747z" fill-rule="evenodd"/><path fill="#666666" d="m358.89383 918.3023l18.428497 -18.015747l56.276886 0l18.428467 18.015747z" fill-rule="evenodd"/><path stroke="#000000" stroke-width="1.0" stroke-linejoin="round" stroke-linecap="butt" d="m358.89383 918.3023l18.428497 -18.015747l56.276886 0l18.428467 18.015747z" fill-rule="evenodd"/><path fill="#666666" d="m358.89383 911.37177l18.428497 -18.015747l56.276886 0l18.428467 18.015747z" fill-rule="evenodd"/><path stroke="#000000" stroke-width="1.0" stroke-linejoin="round" stroke-linecap="butt" d="m358.89383 911.37177l18.428497 -18.015747l56.276886 0l18.428467 18.015747z" fill-rule="evenodd"/><path fill="#666666" d="m358.89383 904.68036l18.428497 -18.015747l56.276886 0l18.428467 18.015747z" fill-rule="evenodd"/><path stroke="#000000" stroke-width="1.0" stroke-linejoin="round" stroke-linecap="butt" d="m358.89383 904.68036l18.428497 -18.015747l56.276886 0l18.428467 18.015747z" fill-rule="evenodd"/><path fill="#666666" d="m358.89383 897.52954l18.428497 -18.015747l56.276886 0l18.428467 18.015747z" fill-rule="evenodd"/><path stroke="#000000" stroke-width="1.0" stroke-linejoin="round" stroke-linecap="butt" d="m358.89383 897.52954l18.428497 -18.015747l56.276886 0l18.428467 18.015747z" fill-rule="evenodd"/><path fill="#000000" d="m333.64697 898.151l20.787415 0l0 -2.1732178l4.3464355 4.3464966l-4.3464355 4.3464355l0 -2.1732178l-20.787415 0z" fill-rule="evenodd"/><path stroke="#000000" stroke-width="1.0" stroke-linejoin="round" stroke-linecap="butt" d="m333.64697 898.151l20.787415 0l0 -2.1732178l4.3464355 4.3464966l-4.3464355 4.3464355l0 -2.1732178l-20.787415 0z" fill-rule="evenodd"/><path fill="#666666" d="m520.2566 935.83673l18.428467 -18.015747l56.276917 0l18.428467 18.015747z" fill-rule="evenodd"/><path stroke="#000000" stroke-width="1.0" stroke-linejoin="round" stroke-linecap="butt" d="m520.2566 935.83673l18.428467 -18.015747l56.276917 0l18.428467 18.015747z" fill-rule="evenodd"/><path fill="#666666" d="m459.97244 929.1133l18.428497 -18.015747l56.276855 0l18.428528 18.015747z" fill-rule="evenodd"/><path stroke="#000000" stroke-width="1.0" stroke-linejoin="round" stroke-linecap="butt" d="m459.97244 929.1133l18.428497 -18.015747l56.276855 0l18.428528 18.015747z" fill-rule="evenodd"/><path fill="#666666" d="m459.97244 922.09155l18.428497 -18.015747l56.276855 0l18.428528 18.015747z" fill-rule="evenodd"/><path stroke="#000000" stroke-width="1.0" stroke-linejoin="round" stroke-linecap="butt" d="m459.97244 922.09155l18.428497 -18.015747l56.276855 0l18.428528 18.015747z" fill-rule="evenodd"/><path fill="#666666" d="m459.97244 916.02734l18.428497 -18.015747l56.276855 0l18.428528 18.015747z" fill-rule="evenodd"/><path stroke="#000000" stroke-width="1.0" stroke-linejoin="round" stroke-linecap="butt" d="m459.97244 916.02734l18.428497 -18.015747l56.276855 0l18.428528 18.015747z" fill-rule="evenodd"/><path fill="#efefef" d="m459.97244 909.09674l18.428497 -18.015747l56.276855 0l18.428528 18.015747z" fill-rule="evenodd"/><path stroke="#000000" stroke-width="1.0" stroke-linejoin="round" stroke-linecap="butt" d="m459.97244 909.09674l18.428497 -18.015747l56.276855 0l18.428528 18.015747z" fill-rule="evenodd"/><path fill="#efefef" d="m459.97244 902.40533l18.428497 -18.015747l56.276855 0l18.428528 18.015747z" fill-rule="evenodd"/><path stroke="#000000" stroke-width="1.0" stroke-linejoin="round" stroke-linecap="butt" d="m459.97244 902.40533l18.428497 -18.015747l56.276855 0l18.428528 18.015747z" fill-rule="evenodd"/><path fill="#efefef" d="m459.97244 895.2545l18.428497 -18.015747l56.276855 0l18.428528 18.015747z" fill-rule="evenodd"/><path stroke="#000000" stroke-width="1.0" stroke-linejoin="round" stroke-linecap="butt" d="m459.97244 895.2545l18.428497 -18.015747l56.276855 0l18.428528 18.015747z" fill-rule="evenodd"/><path fill="#666666" d="m580.52545 929.1133l18.428467 -18.015747l56.276917 0l18.428467 18.015747z" fill-rule="evenodd"/><path stroke="#000000" stroke-width="1.0" stroke-linejoin="round" stroke-linecap="butt" d="m580.52545 929.1133l18.428467 -18.015747l56.276917 0l18.428467 18.015747z" fill-rule="evenodd"/><path fill="#666666" d="m580.52545 922.09155l18.428467 -18.015747l56.276917 0l18.428467 18.015747z" fill-rule="evenodd"/><path stroke="#000000" stroke-width="1.0" stroke-linejoin="round" stroke-linecap="butt" d="m580.52545 922.09155l18.428467 -18.015747l56.276917 0l18.428467 18.015747z" fill-rule="evenodd"/><path fill="#666666" d="m580.52545 916.02734l18.428467 -18.015747l56.276917 0l18.428467 18.015747z" fill-rule="evenodd"/><path stroke="#000000" stroke-width="1.0" stroke-linejoin="round" stroke-linecap="butt" d="m580.52545 916.02734l18.428467 -18.015747l56.276917 0l18.428467 18.015747z" fill-rule="evenodd"/><path fill="#efefef" d="m580.52545 909.09674l18.428467 -18.015747l56.276917 0l18.428467 18.015747z" fill-rule="evenodd"/><path stroke="#000000" stroke-width="1.0" stroke-linejoin="round" stroke-linecap="butt" d="m580.52545 909.09674l18.428467 -18.015747l56.276917 0l18.428467 18.015747z" fill-rule="evenodd"/><path fill="#efefef" d="m580.52545 902.40533l18.428467 -18.015747l56.276917 0l18.428467 18.015747z" fill-rule="evenodd"/><path stroke="#000000" stroke-width="1.0" stroke-linejoin="round" stroke-linecap="butt" d="m580.52545 902.40533l18.428467 -18.015747l56.276917 0l18.428467 18.015747z" fill-rule="evenodd"/><path fill="#efefef" d="m580.52545 895.2545l18.428467 -18.015747l56.276917 0l18.428467 18.015747z" fill-rule="evenodd"/><path stroke="#000000" stroke-width="1.0" stroke-linejoin="round" stroke-linecap="butt" d="m580.52545 895.2545l18.428467 -18.015747l56.276917 0l18.428467 18.015747z" fill-rule="evenodd"/><path fill="#000000" d="m555.27856 895.87604l20.787415 0l0 -2.1732788l4.3464966 4.3464966l-4.3464966 4.3464355l0 -2.1732178l-20.787415 0z" fill-rule="evenodd"/><path stroke="#000000" stroke-width="1.0" stroke-linejoin="round" stroke-linecap="butt" d="m555.27856 895.87604l20.787415 0l0 -2.1732788l4.3464966 4.3464966l-4.3464966 4.3464355l0 -2.1732178l-20.787415 0z" fill-rule="evenodd"/><path fill="#efefef" d="m741.9032 936.3191l18.428467 -18.015747l56.276855 0l18.428528 18.015747z" fill-rule="evenodd"/><path stroke="#000000" stroke-width="1.0" stroke-linejoin="round" stroke-linecap="butt" d="m741.9032 936.3191l18.428467 -18.015747l56.276855 0l18.428528 18.015747z" fill-rule="evenodd"/><path fill="#efefef" d="m681.619 929.59564l18.428528 -18.015747l56.276855 0l18.428467 18.015747z" fill-rule="evenodd"/><path stroke="#000000" stroke-width="1.0" stroke-linejoin="round" stroke-linecap="butt" d="m681.619 929.59564l18.428528 -18.015747l56.276855 0l18.428467 18.015747z" fill-rule="evenodd"/><path fill="#efefef" d="m681.619 922.574l18.428528 -18.015747l56.276855 0l18.428467 18.015747z" fill-rule="evenodd"/><path stroke="#000000" stroke-width="1.0" stroke-linejoin="round" stroke-linecap="butt" d="m681.619 922.574l18.428528 -18.015747l56.276855 0l18.428467 18.015747z" fill-rule="evenodd"/><path fill="#efefef" d="m681.619 916.5097l18.428528 -18.015747l56.276855 0l18.428467 18.015747z" fill-rule="evenodd"/><path stroke="#000000" stroke-width="1.0" stroke-linejoin="round" stroke-linecap="butt" d="m681.619 916.5097l18.428528 -18.015747l56.276855 0l18.428467 18.015747z" fill-rule="evenodd"/><path fill="#666666" d="m681.619 909.5791l18.428528 -18.015747l56.276855 0l18.428467 18.015747z" fill-rule="evenodd"/><path stroke="#000000" stroke-width="1.0" stroke-linejoin="round" stroke-linecap="butt" d="m681.619 909.5791l18.428528 -18.015747l56.276855 0l18.428467 18.015747z" fill-rule="evenodd"/><path fill="#666666" d="m681.619 902.8877l18.428528 -18.015747l56.276855 0l18.428467 18.015747z" fill-rule="evenodd"/><path stroke="#000000" stroke-width="1.0" stroke-linejoin="round" stroke-linecap="butt" d="m681.619 902.8877l18.428528 -18.015747l56.276855 0l18.428467 18.015747z" fill-rule="evenodd"/><path fill="#666666" d="m681.619 895.7369l18.428528 -18.015747l56.276855 0l18.428467 18.015747z" fill-rule="evenodd"/><path stroke="#000000" stroke-width="1.0" stroke-linejoin="round" stroke-linecap="butt" d="m681.619 895.7369l18.428528 -18.015747l56.276855 0l18.428467 18.015747z" fill-rule="evenodd"/><path fill="#efefef" d="m802.17206 929.59564l18.428467 -18.015747l56.276917 0l18.428467 18.015747z" fill-rule="evenodd"/><path stroke="#000000" stroke-width="1.0" stroke-linejoin="round" stroke-linecap="butt" d="m802.17206 929.59564l18.428467 -18.015747l56.276917 0l18.428467 18.015747z" fill-rule="evenodd"/><path fill="#efefef" d="m802.17206 922.574l18.428467 -18.015747l56.276917 0l18.428467 18.015747z" fill-rule="evenodd"/><path stroke="#000000" stroke-width="1.0" stroke-linejoin="round" stroke-linecap="butt" d="m802.17206 922.574l18.428467 -18.015747l56.276917 0l18.428467 18.015747z" fill-rule="evenodd"/><path fill="#efefef" d="m802.17206 916.5097l18.428467 -18.015747l56.276917 0l18.428467 18.015747z" fill-rule="evenodd"/><path stroke="#000000" stroke-width="1.0" stroke-linejoin="round" stroke-linecap="butt" d="m802.17206 916.5097l18.428467 -18.015747l56.276917 0l18.428467 18.015747z" fill-rule="evenodd"/><path fill="#666666" d="m802.17206 909.5791l18.428467 -18.015747l56.276917 0l18.428467 18.015747z" fill-rule="evenodd"/><path stroke="#000000" stroke-width="1.0" stroke-linejoin="round" stroke-linecap="butt" d="m802.17206 909.5791l18.428467 -18.015747l56.276917 0l18.428467 18.015747z" fill-rule="evenodd"/><path fill="#666666" d="m802.17206 902.8877l18.428467 -18.015747l56.276917 0l18.428467 18.015747z" fill-rule="evenodd"/><path stroke="#000000" stroke-width="1.0" stroke-linejoin="round" stroke-linecap="butt" d="m802.17206 902.8877l18.428467 -18.015747l56.276917 0l18.428467 18.015747z" fill-rule="evenodd"/><path fill="#666666" d="m802.17206 895.7369l18.428467 -18.015747l56.276917 0l18.428467 18.015747z" fill-rule="evenodd"/><path stroke="#000000" stroke-width="1.0" stroke-linejoin="round" stroke-linecap="butt" d="m802.17206 895.7369l18.428467 -18.015747l56.276917 0l18.428467 18.015747z" fill-rule="evenodd"/><path fill="#000000" d="m776.9252 896.3584l20.787415 0l0 -2.1732788l4.3464355 4.3464966l-4.3464355 4.3464355l0 -2.1732178l-20.787415 0z" fill-rule="evenodd"/><path stroke="#000000" stroke-width="1.0" stroke-linejoin="round" stroke-linecap="butt" d="m776.9252 896.3584l20.787415 0l0 -2.1732788l4.3464355 4.3464966l-4.3464355 4.3464355l0 -2.1732178l-20.787415 0z" fill-rule="evenodd"/><path fill="#efefef" d="m299.3432 1019.2777l18.428497 -18.015747l56.276855 0l18.428497 18.015747z" fill-rule="evenodd"/><path stroke="#000000" stroke-width="1.0" stroke-linejoin="round" stroke-linecap="butt" d="m299.3432 1019.2777l18.428497 -18.015747l56.276855 0l18.428497 18.015747z" fill-rule="evenodd"/><path fill="#666666" d="m239.05905 1012.5542l18.428497 -18.015747l56.276886 0l18.428467 18.015747z" fill-rule="evenodd"/><path stroke="#000000" stroke-width="1.0" stroke-linejoin="round" stroke-linecap="butt" d="m239.05905 1012.5542l18.428497 -18.015747l56.276886 0l18.428467 18.015747z" fill-rule="evenodd"/><path fill="#666666" d="m239.05905 1005.53253l18.428497 -18.015747l56.276886 0l18.428467 18.015747z" fill-rule="evenodd"/><path stroke="#000000" stroke-width="1.0" stroke-linejoin="round" stroke-linecap="butt" d="m239.05905 1005.53253l18.428497 -18.015747l56.276886 0l18.428467 18.015747z" fill-rule="evenodd"/><path fill="#666666" d="m239.05905 999.46826l18.428497 -18.015747l56.276886 0l18.428467 18.015747z" fill-rule="evenodd"/><path stroke="#000000" stroke-width="1.0" stroke-linejoin="round" stroke-linecap="butt" d="m239.05905 999.46826l18.428497 -18.015747l56.276886 0l18.428467 18.015747z" fill-rule="evenodd"/><path fill="#efefef" d="m239.05905 992.53766l18.428497 -18.015747l56.276886 0l18.428467 18.015747z" fill-rule="evenodd"/><path stroke="#000000" stroke-width="1.0" stroke-linejoin="round" stroke-linecap="butt" d="m239.05905 992.53766l18.428497 -18.015747l56.276886 0l18.428467 18.015747z" fill-rule="evenodd"/><path fill="#efefef" d="m239.05905 985.8463l18.428497 -18.015747l56.276886 0l18.428467 18.015747z" fill-rule="evenodd"/><path stroke="#000000" stroke-width="1.0" stroke-linejoin="round" stroke-linecap="butt" d="m239.05905 985.8463l18.428497 -18.015747l56.276886 0l18.428467 18.015747z" fill-rule="evenodd"/><path fill="#efefef" d="m239.05905 978.69543l18.428497 -18.015747l56.276886 0l18.428467 18.015747z" fill-rule="evenodd"/><path stroke="#000000" stroke-width="1.0" stroke-linejoin="round" stroke-linecap="butt" d="m239.05905 978.69543l18.428497 -18.015747l56.276886 0l18.428467 18.015747z" fill-rule="evenodd"/><path fill="#efefef" d="m359.61206 1012.5542l18.428497 -18.015747l56.276886 0l18.428497 18.015747z" fill-rule="evenodd"/><path stroke="#000000" stroke-width="1.0" stroke-linejoin="round" stroke-linecap="butt" d="m359.61206 1012.5542l18.428497 -18.015747l56.276886 0l18.428497 18.015747z" fill-rule="evenodd"/><path fill="#efefef" d="m359.61206 1005.53253l18.428497 -18.015747l56.276886 0l18.428497 18.015747z" fill-rule="evenodd"/><path stroke="#000000" stroke-width="1.0" stroke-linejoin="round" stroke-linecap="butt" d="m359.61206 1005.53253l18.428497 -18.015747l56.276886 0l18.428497 18.015747z" fill-rule="evenodd"/><path fill="#efefef" d="m359.61206 999.46826l18.428497 -18.015747l56.276886 0l18.428497 18.015747z" fill-rule="evenodd"/><path stroke="#000000" stroke-width="1.0" stroke-linejoin="round" stroke-linecap="butt" d="m359.61206 999.46826l18.428497 -18.015747l56.276886 0l18.428497 18.015747z" fill-rule="evenodd"/><path fill="#efefef" d="m359.61206 992.53766l18.428497 -18.015747l56.276886 0l18.428497 18.015747z" fill-rule="evenodd"/><path stroke="#000000" stroke-width="1.0" stroke-linejoin="round" stroke-linecap="butt" d="m359.61206 992.53766l18.428497 -18.015747l56.276886 0l18.428497 18.015747z" fill-rule="evenodd"/><path fill="#efefef" d="m359.61206 985.8463l18.428497 -18.015747l56.276886 0l18.428497 18.015747z" fill-rule="evenodd"/><path stroke="#000000" stroke-width="1.0" stroke-linejoin="round" stroke-linecap="butt" d="m359.61206 985.8463l18.428497 -18.015747l56.276886 0l18.428497 18.015747z" fill-rule="evenodd"/><path fill="#efefef" d="m359.61206 978.69543l18.428497 -18.015747l56.276886 0l18.428497 18.015747z" fill-rule="evenodd"/><path stroke="#000000" stroke-width="1.0" stroke-linejoin="round" stroke-linecap="butt" d="m359.61206 978.69543l18.428497 -18.015747l56.276886 0l18.428497 18.015747z" fill-rule="evenodd"/><path fill="#000000" d="m334.3652 979.31696l20.787415 0l0 -2.1732178l4.3464355 4.3464355l-4.3464355 4.3464966l0 -2.1732788l-20.787415 0z" fill-rule="evenodd"/><path stroke="#000000" stroke-width="1.0" stroke-linejoin="round" stroke-linecap="butt" d="m334.3652 979.31696l20.787415 0l0 -2.1732178l4.3464355 4.3464355l-4.3464355 4.3464966l0 -2.1732788l-20.787415 0z" fill-rule="evenodd"/><path fill="#efefef" d="m523.62103 1019.75745l18.428467 -18.015747l56.276917 0l18.428467 18.015747z" fill-rule="evenodd"/><path stroke="#000000" stroke-width="1.0" stroke-linejoin="round" stroke-linecap="butt" d="m523.62103 1019.75745l18.428467 -18.015747l56.276917 0l18.428467 18.015747z" fill-rule="evenodd"/><path fill="#efefef" d="m463.33688 1013.034l18.428497 -18.015747l56.276855 0l18.428528 18.015747z" fill-rule="evenodd"/><path stroke="#000000" stroke-width="1.0" stroke-linejoin="round" stroke-linecap="butt" d="m463.33688 1013.034l18.428497 -18.015747l56.276855 0l18.428528 18.015747z" fill-rule="evenodd"/><path fill="#efefef" d="m463.33688 1006.01227l18.428497 -18.015747l56.276855 0l18.428528 18.015747z" fill-rule="evenodd"/><path stroke="#000000" stroke-width="1.0" stroke-linejoin="round" stroke-linecap="butt" d="m463.33688 1006.01227l18.428497 -18.015747l56.276855 0l18.428528 18.015747z" fill-rule="evenodd"/><path fill="#efefef" d="m463.33688 999.948l18.428497 -18.015747l56.276855 0l18.428528 18.015747z" fill-rule="evenodd"/><path stroke="#000000" stroke-width="1.0" stroke-linejoin="round" stroke-linecap="butt" d="m463.33688 999.948l18.428497 -18.015747l56.276855 0l18.428528 18.015747z" fill-rule="evenodd"/><path fill="#666666" d="m463.33688 993.0174l18.428497 -18.015747l56.276855 0l18.428528 18.015747z" fill-rule="evenodd"/><path stroke="#000000" stroke-width="1.0" stroke-linejoin="round" stroke-linecap="butt" d="m463.33688 993.0174l18.428497 -18.015747l56.276855 0l18.428528 18.015747z" fill-rule="evenodd"/><path fill="#666666" d="m463.33688 986.32605l18.428497 -18.015747l56.276855 0l18.428528 18.015747z" fill-rule="evenodd"/><path stroke="#000000" stroke-width="1.0" stroke-linejoin="round" stroke-linecap="butt" d="m463.33688 986.32605l18.428497 -18.015747l56.276855 0l18.428528 18.015747z" fill-rule="evenodd"/><path fill="#666666" d="m463.33688 979.1752l18.428497 -18.015747l56.276855 0l18.428528 18.015747z" fill-rule="evenodd"/><path stroke="#000000" stroke-width="1.0" stroke-linejoin="round" stroke-linecap="butt" d="m463.33688 979.1752l18.428497 -18.015747l56.276855 0l18.428528 18.015747z" fill-rule="evenodd"/><path fill="#efefef" d="m583.8899 1013.034l18.428467 -18.015747l56.276917 0l18.428467 18.015747z" fill-rule="evenodd"/><path stroke="#000000" stroke-width="1.0" stroke-linejoin="round" stroke-linecap="butt" d="m583.8899 1013.034l18.428467 -18.015747l56.276917 0l18.428467 18.015747z" fill-rule="evenodd"/><path fill="#efefef" d="m583.8899 1006.01227l18.428467 -18.015747l56.276917 0l18.428467 18.015747z" fill-rule="evenodd"/><path stroke="#000000" stroke-width="1.0" stroke-linejoin="round" stroke-linecap="butt" d="m583.8899 1006.01227l18.428467 -18.015747l56.276917 0l18.428467 18.015747z" fill-rule="evenodd"/><path fill="#efefef" d="m583.8899 999.948l18.428467 -18.015747l56.276917 0l18.428467 18.015747z" fill-rule="evenodd"/><path stroke="#000000" stroke-width="1.0" stroke-linejoin="round" stroke-linecap="butt" d="m583.8899 999.948l18.428467 -18.015747l56.276917 0l18.428467 18.015747z" fill-rule="evenodd"/><path fill="#efefef" d="m583.8899 993.0174l18.428467 -18.015747l56.276917 0l18.428467 18.015747z" fill-rule="evenodd"/><path stroke="#000000" stroke-width="1.0" stroke-linejoin="round" stroke-linecap="butt" d="m583.8899 993.0174l18.428467 -18.015747l56.276917 0l18.428467 18.015747z" fill-rule="evenodd"/><path fill="#efefef" d="m583.8899 986.32605l18.428467 -18.015747l56.276917 0l18.428467 18.015747z" fill-rule="evenodd"/><path stroke="#000000" stroke-width="1.0" stroke-linejoin="round" stroke-linecap="butt" d="m583.8899 986.32605l18.428467 -18.015747l56.276917 0l18.428467 18.015747z" fill-rule="evenodd"/><path fill="#efefef" d="m583.8899 979.1752l18.428467 -18.015747l56.276917 0l18.428467 18.015747z" fill-rule="evenodd"/><path stroke="#000000" stroke-width="1.0" stroke-linejoin="round" stroke-linecap="butt" d="m583.8899 979.1752l18.428467 -18.015747l56.276917 0l18.428467 18.015747z" fill-rule="evenodd"/><path fill="#000000" d="m558.643 979.7967l20.787415 0l0 -2.1732178l4.3464966 4.3464355l-4.3464966 4.3464966l0 -2.1732788l-20.787415 0z" fill-rule="evenodd"/><path stroke="#000000" stroke-width="1.0" stroke-linejoin="round" stroke-linecap="butt" d="m558.643 979.7967l20.787415 0l0 -2.1732178l4.3464966 4.3464355l-4.3464966 4.3464966l0 -2.1732788l-20.787415 0z" fill-rule="evenodd"/><path fill="#000000" fill-opacity="0.0" d="m78.04855 930.9055l90.99213 0l0 37.007874l-90.99213 0z" fill-rule="evenodd"/><path fill="#000000" d="m95.82587 955.2655l0 -11.453125l2.28125 0l2.71875 8.109375q0.375 1.125 0.546875 1.6875q0.1875 -0.625 0.609375 -1.828125l2.734375 -7.96875l2.046875 0l0 11.453125l-1.46875 0l0 -9.59375l-3.328125 9.59375l-1.359375 0l-3.3125 -9.75l0 9.75l-1.46875 0zm12.671875 -4.15625q0 -2.296875 1.28125 -3.40625q1.078125 -0.921875 2.609375 -0.921875q1.71875 0 2.796875 1.125q1.09375 1.109375 1.09375 3.09375q0 1.59375 -0.484375 2.515625q-0.484375 0.921875 -1.40625 1.4375q-0.90625 0.5 -2.0 0.5q-1.734375 0 -2.8125 -1.109375q-1.078125 -1.125 -1.078125 -3.234375zm1.453125 0q0 1.59375 0.6875 2.390625q0.703125 0.796875 1.75 0.796875q1.046875 0 1.734375 -0.796875q0.703125 -0.796875 0.703125 -2.4375q0 -1.53125 -0.703125 -2.328125q-0.6875 -0.796875 -1.734375 -0.796875q-1.046875 0 -1.75 0.796875q-0.6875 0.78125 -0.6875 2.375zm13.3515625 4.15625l0 -1.046875q-0.78125 1.234375 -2.3125 1.234375q-1.0 0 -1.828125 -0.546875q-0.828125 -0.546875 -1.296875 -1.53125q-0.453125 -0.984375 -0.453125 -2.25q0 -1.25 0.40625 -2.25q0.421875 -1.015625 1.25 -1.546875q0.828125 -0.546875 1.859375 -0.546875q0.75 0 1.328125 0.3125q0.59375 0.3125 0.953125 0.828125l0 -4.109375l1.40625 0l0 11.453125l-1.3125 0zm-4.4375 -4.140625q0 1.59375 0.671875 2.390625q0.671875 0.78125 1.578125 0.78125q0.921875 0 1.5625 -0.75q0.65625 -0.765625 0.65625 -2.3125q0 -1.703125 -0.65625 -2.5q-0.65625 -0.796875 -1.625 -0.796875q-0.9375 0 -1.5625 0.765625q-0.625 0.765625 -0.625 2.421875zm13.6328125 1.46875l1.453125 0.171875q-0.34375 1.28125 -1.28125 1.984375q-0.921875 0.703125 -2.359375 0.703125q-1.828125 0 -2.890625 -1.125q-1.0625 -1.125 -1.0625 -3.140625q0 -2.09375 1.078125 -3.25q1.078125 -1.15625 2.796875 -1.15625q1.65625 0 2.703125 1.140625q1.0625 1.125 1.0625 3.171875q0 0.125 0 0.375l-6.1875 0q0.078125 1.375 0.765625 2.109375q0.703125 0.71875 1.734375 0.71875q0.78125 0 1.328125 -0.40625q0.546875 -0.40625 0.859375 -1.296875zm-4.609375 -2.28125l4.625 0q-0.09375 -1.046875 -0.53125 -1.5625q-0.671875 -0.8125 -1.734375 -0.8125q-0.96875 0 -1.640625 0.65625q-0.65625 0.640625 -0.71875 1.71875zm7.8046875 4.953125l0 -11.453125l1.40625 0l0 11.453125l-1.40625 0zm6.0546875 0l4.40625 -11.453125l1.640625 0l4.6875 11.453125l-1.734375 0l-1.328125 -3.46875l-4.796875 0l-1.25 3.46875l-1.625 0zm3.3125 -4.703125l3.890625 0l-1.203125 -3.171875q-0.546875 -1.453125 -0.8125 -2.375q-0.21875 1.09375 -0.609375 2.1875l-1.265625 3.359375z" fill-rule="nonzero"/><path fill="#000000" fill-opacity="0.0" d="m301.437 930.9409l90.99213 0l0 37.007874l-90.99213 0z" fill-rule="evenodd"/><path fill="#000000" d="m318.77292 955.30096l0 -11.453125l2.28125 0l2.71875 8.109375q0.375 1.125 0.546875 1.6875q0.1875 -0.625 0.609375 -1.828125l2.734375 -7.96875l2.046875 0l0 11.453125l-1.46875 0l0 -9.59375l-3.328125 9.59375l-1.359375 0l-3.3125 -9.75l0 9.75l-1.46875 0zm12.671875 -4.15625q0 -2.296875 1.28125 -3.40625q1.078125 -0.921875 2.609375 -0.921875q1.71875 0 2.796875 1.125q1.09375 1.109375 1.09375 3.09375q0 1.59375 -0.484375 2.515625q-0.484375 0.921875 -1.40625 1.4375q-0.90625 0.5 -2.0 0.5q-1.734375 0 -2.8125 -1.109375q-1.078125 -1.125 -1.078125 -3.234375zm1.453125 0q0 1.59375 0.6875 2.390625q0.703125 0.796875 1.75 0.796875q1.046875 0 1.734375 -0.796875q0.703125 -0.796875 0.703125 -2.4375q0 -1.53125 -0.703125 -2.328125q-0.6875 -0.796875 -1.734375 -0.796875q-1.046875 0 -1.75 0.796875q-0.6875 0.78125 -0.6875 2.375zm13.3515625 4.15625l0 -1.046875q-0.78125 1.234375 -2.3125 1.234375q-1.0 0 -1.828125 -0.546875q-0.828125 -0.546875 -1.296875 -1.53125q-0.453125 -0.984375 -0.453125 -2.25q0 -1.25 0.40625 -2.25q0.421875 -1.015625 1.25 -1.546875q0.828125 -0.546875 1.859375 -0.546875q0.75 0 1.328125 0.3125q0.59375 0.3125 0.953125 0.828125l0 -4.109375l1.40625 0l0 11.453125l-1.3125 0zm-4.4375 -4.140625q0 1.59375 0.671875 2.390625q0.671875 0.78125 1.578125 0.78125q0.921875 0 1.5625 -0.75q0.65625 -0.765625 0.65625 -2.3125q0 -1.703125 -0.65625 -2.5q-0.65625 -0.796875 -1.625 -0.796875q-0.9375 0 -1.5625 0.765625q-0.625 0.765625 -0.625 2.421875zm13.6328125 1.46875l1.453125 0.171875q-0.34375 1.28125 -1.28125 1.984375q-0.921875 0.703125 -2.359375 0.703125q-1.828125 0 -2.890625 -1.125q-1.0625 -1.125 -1.0625 -3.140625q0 -2.09375 1.078125 -3.25q1.078125 -1.15625 2.796875 -1.15625q1.65625 0 2.703125 1.140625q1.0625 1.125 1.0625 3.171875q0 0.125 0 0.375l-6.1875 0q0.078125 1.375 0.765625 2.109375q0.703125 0.71875 1.734375 0.71875q0.78125 0 1.328125 -0.40625q0.546875 -0.40625 0.859375 -1.296875zm-4.609375 -2.28125l4.625 0q-0.09375 -1.046875 -0.53125 -1.5625q-0.671875 -0.8125 -1.734375 -0.8125q-0.96875 0 -1.640625 0.65625q-0.65625 0.640625 -0.71875 1.71875zm7.8046875 4.953125l0 -11.453125l1.40625 0l0 11.453125l-1.40625 0zm8.140625 0l0 -11.453125l4.296875 0q1.3125 0 2.109375 0.34375q0.796875 0.34375 1.234375 1.078125q0.453125 0.71875 0.453125 1.5q0 0.734375 -0.40625 1.390625q-0.390625 0.640625 -1.1875 1.046875q1.03125 0.296875 1.59375 1.03125q0.5625 0.734375 0.5625 1.734375q0 0.8125 -0.34375 1.5q-0.34375 0.6875 -0.84375 1.0625q-0.5 0.375 -1.25 0.578125q-0.75 0.1875 -1.84375 0.1875l-4.375 0zm1.515625 -6.640625l2.484375 0q1.0 0 1.4375 -0.140625q0.578125 -0.171875 0.875 -0.5625q0.296875 -0.40625 0.296875 -1.0q0 -0.578125 -0.28125 -1.0q-0.265625 -0.4375 -0.78125 -0.59375q-0.5 -0.171875 -1.734375 -0.171875l-2.296875 0l0 3.46875zm0 5.28125l2.859375 0q0.734375 0 1.03125 -0.046875q0.515625 -0.09375 0.859375 -0.3125q0.359375 -0.21875 0.578125 -0.640625q0.234375 -0.421875 0.234375 -0.96875q0 -0.640625 -0.328125 -1.109375q-0.328125 -0.46875 -0.90625 -0.65625q-0.578125 -0.203125 -1.671875 -0.203125l-2.65625 0l0 3.9375z" fill-rule="nonzero"/><path fill="#000000" fill-opacity="0.0" d="m525.33594 930.20734l90.99213 0l0 37.007874l-90.99213 0z" fill-rule="evenodd"/><path fill="#000000" d="m542.23047 954.5673l0 -11.453125l2.28125 0l2.71875 8.109375q0.375 1.125 0.546875 1.6875q0.1875 -0.625 0.609375 -1.828125l2.734375 -7.96875l2.046875 0l0 11.453125l-1.46875 0l0 -9.59375l-3.328125 9.59375l-1.359375 0l-3.3125 -9.75l0 9.75l-1.46875 0zm12.671875 -4.15625q0 -2.296875 1.28125 -3.40625q1.078125 -0.921875 2.609375 -0.921875q1.71875 0 2.796875 1.125q1.09375 1.109375 1.09375 3.09375q0 1.59375 -0.484375 2.515625q-0.484375 0.921875 -1.40625 1.4375q-0.90625 0.5 -2.0 0.5q-1.734375 0 -2.8125 -1.109375q-1.078125 -1.125 -1.078125 -3.234375zm1.453125 0q0 1.59375 0.6875 2.390625q0.703125 0.796875 1.75 0.796875q1.046875 0 1.734375 -0.796875q0.703125 -0.796875 0.703125 -2.4375q0 -1.53125 -0.703125 -2.328125q-0.6875 -0.796875 -1.734375 -0.796875q-1.046875 0 -1.75 0.796875q-0.6875 0.78125 -0.6875 2.375zm13.3515625 4.15625l0 -1.046875q-0.78125 1.234375 -2.3125 1.234375q-1.0 0 -1.828125 -0.546875q-0.828125 -0.546875 -1.296875 -1.53125q-0.453125 -0.984375 -0.453125 -2.25q0 -1.25 0.40625 -2.25q0.421875 -1.015625 1.25 -1.546875q0.828125 -0.546875 1.859375 -0.546875q0.75 0 1.328125 0.3125q0.59375 0.3125 0.953125 0.828125l0 -4.109375l1.40625 0l0 11.453125l-1.3125 0zm-4.4375 -4.140625q0 1.59375 0.671875 2.390625q0.671875 0.78125 1.578125 0.78125q0.921875 0 1.5625 -0.75q0.65625 -0.765625 0.65625 -2.3125q0 -1.703125 -0.65625 -2.5q-0.65625 -0.796875 -1.625 -0.796875q-0.9375 0 -1.5625 0.765625q-0.625 0.765625 -0.625 2.421875zm13.6328125 1.46875l1.453125 0.171875q-0.34375 1.28125 -1.28125 1.984375q-0.921875 0.703125 -2.359375 0.703125q-1.828125 0 -2.890625 -1.125q-1.0625 -1.125 -1.0625 -3.140625q0 -2.09375 1.078125 -3.25q1.078125 -1.15625 2.796875 -1.15625q1.65625 0 2.703125 1.140625q1.0625 1.125 1.0625 3.171875q0 0.125 0 0.375l-6.1875 0q0.078125 1.375 0.765625 2.109375q0.703125 0.71875 1.734375 0.71875q0.78125 0 1.328125 -0.40625q0.546875 -0.40625 0.859375 -1.296875zm-4.609375 -2.28125l4.625 0q-0.09375 -1.046875 -0.53125 -1.5625q-0.671875 -0.8125 -1.734375 -0.8125q-0.96875 0 -1.640625 0.65625q-0.65625 0.640625 -0.71875 1.71875zm7.8046875 4.953125l0 -11.453125l1.40625 0l0 11.453125l-1.40625 0zm16.375 -4.015625l1.515625 0.375q-0.46875 1.875 -1.71875 2.859375q-1.234375 0.984375 -3.015625 0.984375q-1.859375 0 -3.015625 -0.75q-1.15625 -0.765625 -1.765625 -2.1875q-0.609375 -1.4375 -0.609375 -3.078125q0 -1.796875 0.6875 -3.125q0.6875 -1.328125 1.9375 -2.015625q1.265625 -0.703125 2.78125 -0.703125q1.71875 0 2.890625 0.875q1.171875 0.875 1.640625 2.46875l-1.5 0.34375q-0.390625 -1.25 -1.15625 -1.8125q-0.75 -0.578125 -1.90625 -0.578125q-1.3125 0 -2.203125 0.640625q-0.890625 0.625 -1.25 1.703125q-0.359375 1.0625 -0.359375 2.1875q0 1.46875 0.421875 2.5625q0.4375 1.078125 1.328125 1.625q0.90625 0.53125 1.953125 0.53125q1.265625 0 2.140625 -0.734375q0.890625 -0.734375 1.203125 -2.171875z" fill-rule="nonzero"/><path fill="#000000" fill-opacity="0.0" d="m741.9055 930.20734l90.99213 0l0 37.007874l-90.99213 0z" fill-rule="evenodd"/><path fill="#000000" d="m758.8 954.5673l0 -11.453125l2.28125 0l2.71875 8.109375q0.375 1.125 0.546875 1.6875q0.1875 -0.625 0.609375 -1.828125l2.734375 -7.96875l2.046875 0l0 11.453125l-1.46875 0l0 -9.59375l-3.328125 9.59375l-1.359375 0l-3.3125 -9.75l0 9.75l-1.46875 0zm12.671875 -4.15625q0 -2.296875 1.28125 -3.40625q1.078125 -0.921875 2.609375 -0.921875q1.71875 0 2.796875 1.125q1.09375 1.109375 1.09375 3.09375q0 1.59375 -0.484375 2.515625q-0.484375 0.921875 -1.40625 1.4375q-0.90625 0.5 -2.0 0.5q-1.734375 0 -2.8125 -1.109375q-1.078125 -1.125 -1.078125 -3.234375zm1.453125 0q0 1.59375 0.6875 2.390625q0.703125 0.796875 1.75 0.796875q1.046875 0 1.734375 -0.796875q0.703125 -0.796875 0.703125 -2.4375q0 -1.53125 -0.703125 -2.328125q-0.6875 -0.796875 -1.734375 -0.796875q-1.046875 0 -1.75 0.796875q-0.6875 0.78125 -0.6875 2.375zm13.3515625 4.15625l0 -1.046875q-0.78125 1.234375 -2.3125 1.234375q-1.0 0 -1.828125 -0.546875q-0.828125 -0.546875 -1.296875 -1.53125q-0.453125 -0.984375 -0.453125 -2.25q0 -1.25 0.40625 -2.25q0.421875 -1.015625 1.25 -1.546875q0.828125 -0.546875 1.859375 -0.546875q0.75 0 1.328125 0.3125q0.59375 0.3125 0.953125 0.828125l0 -4.109375l1.40625 0l0 11.453125l-1.3125 0zm-4.4375 -4.140625q0 1.59375 0.671875 2.390625q0.671875 0.78125 1.578125 0.78125q0.921875 0 1.5625 -0.75q0.65625 -0.765625 0.65625 -2.3125q0 -1.703125 -0.65625 -2.5q-0.65625 -0.796875 -1.625 -0.796875q-0.9375 0 -1.5625 0.765625q-0.625 0.765625 -0.625 2.421875zm13.6328125 1.46875l1.453125 0.171875q-0.34375 1.28125 -1.28125 1.984375q-0.921875 0.703125 -2.359375 0.703125q-1.828125 0 -2.890625 -1.125q-1.0625 -1.125 -1.0625 -3.140625q0 -2.09375 1.078125 -3.25q1.078125 -1.15625 2.796875 -1.15625q1.65625 0 2.703125 1.140625q1.0625 1.125 1.0625 3.171875q0 0.125 0 0.375l-6.1875 0q0.078125 1.375 0.765625 2.109375q0.703125 0.71875 1.734375 0.71875q0.78125 0 1.328125 -0.40625q0.546875 -0.40625 0.859375 -1.296875zm-4.609375 -2.28125l4.625 0q-0.09375 -1.046875 -0.53125 -1.5625q-0.671875 -0.8125 -1.734375 -0.8125q-0.96875 0 -1.640625 0.65625q-0.65625 0.640625 -0.71875 1.71875zm7.8046875 4.953125l0 -11.453125l1.40625 0l0 11.453125l-1.40625 0zm8.203125 0l0 -11.453125l3.953125 0q1.328125 0 2.03125 0.15625q0.984375 0.234375 1.6875 0.828125q0.90625 0.765625 1.34375 1.953125q0.453125 1.1875 0.453125 2.71875q0 1.3125 -0.3125 2.328125q-0.296875 1.0 -0.78125 1.65625q-0.46875 0.65625 -1.03125 1.046875q-0.5625 0.375 -1.375 0.578125q-0.796875 0.1875 -1.828125 0.1875l-4.140625 0zm1.515625 -1.359375l2.453125 0q1.125 0 1.765625 -0.203125q0.65625 -0.21875 1.03125 -0.59375q0.546875 -0.546875 0.84375 -1.453125q0.296875 -0.90625 0.296875 -2.203125q0 -1.796875 -0.59375 -2.765625q-0.578125 -0.96875 -1.421875 -1.296875q-0.609375 -0.234375 -1.96875 -0.234375l-2.40625 0l0 8.75z" fill-rule="nonzero"/><path fill="#000000" fill-opacity="0.0" d="m299.69553 1012.9685l90.99213 0l0 37.007812l-90.99213 0z" fill-rule="evenodd"/><path fill="#000000" d="m317.03143 1037.3285l0 -11.453125l2.28125 0l2.71875 8.109375q0.375 1.125 0.546875 1.6875q0.1875 -0.625 0.609375 -1.828125l2.734375 -7.96875l2.046875 0l0 11.453125l-1.46875 0l0 -9.59375l-3.328125 9.59375l-1.359375 0l-3.3125 -9.75l0 9.75l-1.46875 0zm12.671875 -4.15625q0 -2.296875 1.28125 -3.40625q1.078125 -0.921875 2.609375 -0.921875q1.71875 0 2.796875 1.125q1.09375 1.109375 1.09375 3.09375q0 1.59375 -0.484375 2.515625q-0.484375 0.921875 -1.40625 1.4375q-0.90625 0.5 -2.0 0.5q-1.734375 0 -2.8125 -1.109375q-1.078125 -1.125 -1.078125 -3.234375zm1.453125 0q0 1.59375 0.6875 2.390625q0.703125 0.796875 1.75 0.796875q1.046875 0 1.734375 -0.796875q0.703125 -0.796875 0.703125 -2.4375q0 -1.53125 -0.703125 -2.328125q-0.6875 -0.796875 -1.734375 -0.796875q-1.046875 0 -1.75 0.796875q-0.6875 0.78125 -0.6875 2.375zm13.3515625 4.15625l0 -1.046875q-0.78125 1.234375 -2.3125 1.234375q-1.0 0 -1.828125 -0.546875q-0.828125 -0.546875 -1.296875 -1.53125q-0.453125 -0.984375 -0.453125 -2.25q0 -1.25 0.40625 -2.25q0.421875 -1.015625 1.25 -1.546875q0.828125 -0.546875 1.859375 -0.546875q0.75 0 1.328125 0.3125q0.59375 0.3125 0.953125 0.828125l0 -4.109375l1.40625 0l0 11.453125l-1.3125 0zm-4.4375 -4.140625q0 1.59375 0.671875 2.390625q0.671875 0.78125 1.578125 0.78125q0.921875 0 1.5625 -0.75q0.65625 -0.765625 0.65625 -2.3125q0 -1.703125 -0.65625 -2.5q-0.65625 -0.796875 -1.625 -0.796875q-0.9375 0 -1.5625 0.765625q-0.625 0.765625 -0.625 2.421875zm13.6328125 1.46875l1.453125 0.171875q-0.34375 1.28125 -1.28125 1.984375q-0.921875 0.703125 -2.359375 0.703125q-1.828125 0 -2.890625 -1.125q-1.0625 -1.125 -1.0625 -3.140625q0 -2.09375 1.078125 -3.25q1.078125 -1.15625 2.796875 -1.15625q1.65625 0 2.703125 1.140625q1.0625 1.125 1.0625 3.171875q0 0.125 0 0.375l-6.1875 0q0.078125 1.375 0.765625 2.109375q0.703125 0.71875 1.734375 0.71875q0.78125 0 1.328125 -0.40625q0.546875 -0.40625 0.859375 -1.296875zm-4.609375 -2.28125l4.625 0q-0.09375 -1.046875 -0.53125 -1.5625q-0.671875 -0.8125 -1.734375 -0.8125q-0.96875 0 -1.640625 0.65625q-0.65625 0.640625 -0.71875 1.71875zm7.8046875 4.953125l0 -11.453125l1.40625 0l0 11.453125l-1.40625 0zm8.234375 0l0 -11.453125l8.28125 0l0 1.34375l-6.765625 0l0 3.515625l6.34375 0l0 1.34375l-6.34375 0l0 3.890625l7.03125 0l0 1.359375l-8.546875 0z" fill-rule="nonzero"/><path fill="#000000" fill-opacity="0.0" d="m524.6903 1011.2231l90.99213 0l0 37.007874l-90.99213 0z" fill-rule="evenodd"/><path fill="#000000" d="m542.4754 1035.5831l0 -11.453125l2.28125 0l2.71875 8.109375q0.375 1.125 0.546875 1.6875q0.1875 -0.625 0.609375 -1.828125l2.734375 -7.96875l2.046875 0l0 11.453125l-1.46875 0l0 -9.59375l-3.328125 9.59375l-1.359375 0l-3.3125 -9.75l0 9.75l-1.46875 0zm12.671875 -4.15625q0 -2.296875 1.28125 -3.40625q1.078125 -0.921875 2.609375 -0.921875q1.71875 0 2.796875 1.125q1.09375 1.109375 1.09375 3.09375q0 1.59375 -0.484375 2.515625q-0.484375 0.921875 -1.40625 1.4375q-0.90625 0.5 -2.0 0.5q-1.734375 0 -2.8125 -1.109375q-1.078125 -1.125 -1.078125 -3.234375zm1.453125 0q0 1.59375 0.6875 2.390625q0.703125 0.796875 1.75 0.796875q1.046875 0 1.734375 -0.796875q0.703125 -0.796875 0.703125 -2.4375q0 -1.53125 -0.703125 -2.328125q-0.6875 -0.796875 -1.734375 -0.796875q-1.046875 0 -1.75 0.796875q-0.6875 0.78125 -0.6875 2.375zm13.3515625 4.15625l0 -1.046875q-0.78125 1.234375 -2.3125 1.234375q-1.0 0 -1.828125 -0.546875q-0.828125 -0.546875 -1.296875 -1.53125q-0.453125 -0.984375 -0.453125 -2.25q0 -1.25 0.40625 -2.25q0.421875 -1.015625 1.25 -1.546875q0.828125 -0.546875 1.859375 -0.546875q0.75 0 1.328125 0.3125q0.59375 0.3125 0.953125 0.828125l0 -4.109375l1.40625 0l0 11.453125l-1.3125 0zm-4.4375 -4.140625q0 1.59375 0.671875 2.390625q0.671875 0.78125 1.578125 0.78125q0.921875 0 1.5625 -0.75q0.65625 -0.765625 0.65625 -2.3125q0 -1.703125 -0.65625 -2.5q-0.65625 -0.796875 -1.625 -0.796875q-0.9375 0 -1.5625 0.765625q-0.625 0.765625 -0.625 2.421875zm13.6328125 1.46875l1.453125 0.171875q-0.34375 1.28125 -1.28125 1.984375q-0.921875 0.703125 -2.359375 0.703125q-1.828125 0 -2.890625 -1.125q-1.0625 -1.125 -1.0625 -3.140625q0 -2.09375 1.078125 -3.25q1.078125 -1.15625 2.796875 -1.15625q1.65625 0 2.703125 1.140625q1.0625 1.125 1.0625 3.171875q0 0.125 0 0.375l-6.1875 0q0.078125 1.375 0.765625 2.109375q0.703125 0.71875 1.734375 0.71875q0.78125 0 1.328125 -0.40625q0.546875 -0.40625 0.859375 -1.296875zm-4.609375 -2.28125l4.625 0q-0.09375 -1.046875 -0.53125 -1.5625q-0.671875 -0.8125 -1.734375 -0.8125q-0.96875 0 -1.640625 0.65625q-0.65625 0.640625 -0.71875 1.71875zm7.8046875 4.953125l0 -11.453125l1.40625 0l0 11.453125l-1.40625 0zm8.28125 0l0 -11.453125l7.734375 0l0 1.34375l-6.21875 0l0 3.546875l5.375 0l0 1.359375l-5.375 0l0 5.203125l-1.515625 0z" fill-rule="nonzero"/></g></svg>